<svg xmlns="http://www.w3.org/2000/svg" viewBox="0 0 64 64">
  <style>
    .body { fill: #23272e; }
    .dpad { fill: #9aa1ab; }
    @media (prefers-color-scheme: dark) {
      .body { fill: #d5d9df; }
      .dpad { fill: #4a515b; }
    }
  </style>
  <path class="body" d="M14 16 H50 C57 16 61 21 62 28 L63 42 C63.5 49 59 53 53.5 53 C49 53 46.5 50 44.5 46 L41 40 H23 L19.5 46 C17.5 50 15 53 10.5 53 C5 53 0.5 49 1 42 L2 28 C3 21 7 16 14 16 Z"/>
  <path class="dpad" d="M13 23 H19 V28 H24 V34 H19 V39 H13 V34 H8 V28 H13 Z"/>
  <circle cx="46" cy="23.5" r="4" fill="#2fa84f"/>
  <circle cx="54" cy="31" r="4" fill="#e2231a"/>
  <circle cx="38" cy="31" r="4" fill="#1f5fbf"/>
  <circle cx="46" cy="38.5" r="4" fill="#f7b500"/>
</svg>
